<svg width="14" height="17" viewBox="0 0 14 17" fill="none" xmlns="http://www.w3.org/2000/svg">
<path d="M0.455563 12H2.69556V0.832H0.455563V12ZM4.33269 7.536C4.33269 10.304 6.12469 12.144 8.38069 12.144C9.77269 12.144 10.7807 11.456 11.3087 10.688V12.064C11.3087 13.712 10.3487 14.416 9.11669 14.416C7.99669 14.416 7.16469 13.888 6.94069 13.088H4.71669C4.94069 15.12 6.68469 16.368 9.18069 16.368C12.0927 16.368 13.5647 14.464 13.5647 12.064V3.136H11.3087V4.4C10.7807 3.632 9.77269 2.992 8.38069 2.992C6.12469 2.992 4.33269 4.768 4.33269 7.536ZM11.3087 7.568C11.3087 9.248 10.1887 10.176 8.95669 10.176C7.75669 10.176 6.62069 9.216 6.62069 7.536C6.62069 5.856 7.75669 4.96 8.95669 4.96C10.1887 4.96 11.3087 5.888 11.3087 7.568Z" fill="white"/>
</svg>
