<svg width="19" height="13" viewBox="0 0 19 13" fill="none" xmlns="http://www.w3.org/2000/svg">
<path d="M0.439938 12H2.67994V7.28H6.24794V5.504H2.67994V2.64H7.33594V0.832H0.439938V12ZM11.1643 4.432V0.16H8.92431V12H11.1643V10.736C11.7083 11.504 12.7003 12.144 14.0923 12.144C16.3643 12.144 18.1403 10.304 18.1403 7.536C18.1403 4.768 16.3643 2.992 14.0923 2.992C12.7483 2.992 11.7083 3.616 11.1643 4.432ZM15.8523 7.536C15.8523 9.216 14.7163 10.176 13.5003 10.176C12.3003 10.176 11.1643 9.248 11.1643 7.568C11.1643 5.888 12.3003 4.96 13.5003 4.96C14.7163 4.96 15.8523 5.856 15.8523 7.536Z" fill="white"/>
</svg>
